<?xml version="1.0" encoding="utf-8"?>
<!-- Generator: Adobe Illustrator 23.0.3, SVG Export Plug-In . SVG Version: 6.00 Build 0)  -->
<svg version="1.1" id="svg8" xmlns="http://www.w3.org/2000/svg" xmlns:xlink="http://www.w3.org/1999/xlink" x="0px" y="0px"
	 viewBox="0 0 310 310" style="enable-background:new 0 0 310 310;" xml:space="preserve">
<style type="text/css">
	.st0{fill:#FFFFFF;}
	.st1{fill:#FFDD2B;}
</style>
<rect class="st0" width="310" height="310"/>
<title>fizzee</title>
<g>
	<path id="path5278" class="st1" d="M117.6,183c-1.8-0.6-3.3-2.1-5.7-5.3c-0.4-0.6-0.8-1.1-1.3-1.5c-0.1-0.1-1-1.2-2.2-2.6
		c-1.1-1.3-3-3.5-4.1-4.7c-2.7-3.1-3.3-4-4-6.1c-0.7-1.7-0.8-3.6-0.3-5.4c0.6-2.5,1.9-4.3,6-9.3c0.2-0.3,1.1-1.5,2.1-2.7
		c1.1-1.6,2.3-3,3.6-4.4c0.5-0.6,1-1.3,1.4-2l0.5-0.8l-0.8-1c-0.4-0.5-1.8-2.2-3-3.5c-4.1-4.6-5.2-6.4-5.6-9.4
		c-0.6-4.5,2.7-8.8,6.4-8.4c0.7,0.1,1.5,0.3,2.2,0.5c1.7,1.1,3.1,2.5,4.3,4.1c0.4,0.6,0.9,1.1,1.4,1.5c0.6,0.7,1.2,1.4,1.8,2.2
		c0.9,1.1,1.9,2.3,2.2,2.6c2.4,2.4,4.5,5.2,6,8.3c0.5,2,0.5,4.1,0.1,6.1c-0.4,1.6-1.3,2.9-5.4,7.8c-4,5-7.4,9.4-7.8,10.2
		c-0.3,0.5-0.2,0.7,0.2,1.2c0.4,0.5,0.7,0.8,1,1.2c0.6,0.7,2.5,3,3.7,4.3c1.6,1.6,3,3.4,4.1,5.5c1.5,2.7,1.6,6,0.2,8.8
		c-0.7,1.9-2.4,3.2-4.4,3.3C119.1,183.2,118.2,183.1,117.6,183L117.6,183z"/>
	<path id="path5276" d="M203.5,128.6c-1.6,0-3.3,0.1-4.8,0.5c-3.1,0.9-6,2.4-8.6,4.3c-5,4.4-8,10.7-8.1,17.3
		c-0.4,9.3,3.4,17,10.6,21.3c1.8,1,3.8,1.7,5.8,2.2c1.8,0.4,3.6,0.6,5.5,0.5c4.6,0.2,9.2-0.9,13.2-3.2c2.3-1.6,4.4-3.5,6.1-5.7
		c1-2.5-0.2-5.3-2.6-6.3c-0.3-0.1-0.5-0.2-0.8-0.2c-0.4-0.1-0.9-0.2-1.3-0.2c-0.3,0.1-0.7,0.2-1,0.3c-1,0.5-2,1.2-2.9,2.1
		c-3.5,3.4-6.4,4.6-10.6,4.6c-4.8,0.2-9.2-2.5-11.2-6.8c-0.9-1.8-1.2-3.9-0.9-5.9l0.3-0.7l12.5-0.1l12.5-0.1l1.8-0.9
		c2.8-1.2,4.5-4.1,4.3-7.1c-0.1-7-6.3-13.5-14.6-15.5C206.9,128.7,205.2,128.6,203.5,128.6z M203.8,136.9c1.5-0.1,2.9,0.1,4.3,0.6
		c1.7,0.6,3.2,1.8,4.3,3.3c1,1.8,1.1,2.9,0.4,3.6c-0.5,0.5-0.7,0.5-10.1,0.5c-5.3,0-9.7-0.1-9.9-0.2c-1.1-0.4,1.1-4,3.6-5.7
		C198.5,137.4,201.1,136.7,203.8,136.9z"/>
	<path id="path5272" d="M252.3,128.5c-1.9,0-3.8,0.3-5.7,0.8c-9.4,2.7-15.5,11.4-15.7,22.1c-0.2,8.6,3.5,15.9,9.8,20
		c2,1.3,4.2,2.3,6.5,2.9c3.7,0.7,7.5,0.7,11.2,0.1c2.6-0.6,5.1-1.5,7.4-2.9c2.2-1.2,5.9-4.8,6.2-6c0.8-2.6-0.6-5.3-3.2-6.1
		c-0.4-0.1-0.9-0.2-1.4-0.2c-1.6,0-2.2,0.3-4.3,2.4c-2.7,2.8-6.5,4.4-10.4,4.3c-2.5,0.2-5-0.5-7.1-2c-1.7-1.1-3.1-2.7-3.9-4.6
		c-0.7-1.3-1-2.7-0.8-4.1v-2.2l12.5-0.1l12.5-0.1l1.6-0.7c6.2-2.9,6-11-0.3-17.3c-2.1-2.2-4.7-3.8-7.6-4.7
		C257.4,128.9,254.9,128.4,252.3,128.5z M252.6,136.8c2.5-0.2,4.9,0.5,6.9,2c2.2,1.6,3.3,4.4,2.2,5.6c-0.5,0.5-0.7,0.5-10.1,0.5
		c-5.3,0-9.7-0.1-9.9-0.2c-0.9-0.6,0.9-3.5,3.4-5.4C247.2,137.5,249.9,136.6,252.6,136.8L252.6,136.8z"/>
	<path id="path5268" d="M78.6,174.1c-0.7-0.4-1.3-0.9-1.8-1.6l-0.6-1v-19.8c0-22-0.1-20.3,1.9-21.9c1.5-1,3.4-1.2,5.1-0.5
		c1.2,0.5,2.8,2,2.8,2.9V152c0,21.6,0.1,20.2-1.9,21.8C82.4,174.8,80.4,174.9,78.6,174.1z"/>
	<path id="path5266" d="M51.6,173.7c-0.5-0.2-0.9-0.5-1.3-0.8c-1.4-1.3-1.4-0.9-1.3-16.9c0-8.2-0.1-15.4-0.2-16.1l-0.2-1.2h-2.4
		c-3.2,0-4.4-0.4-5.3-2c-1.2-2.1-0.7-5.3,1.1-6.4c0.6-0.4,1.4-0.5,3.7-0.6l2.9-0.1l0.2-4.4c0-1.8,0.1-3.6,0.4-5.4
		c0.5-3.5,2.2-6.8,4.6-9.4c2.9-3.2,7.1-4.9,11.4-4.8c2.5,0,4.1,0.6,5.1,2c0.8,1.6,0.8,3.4-0.1,5c-0.8,1.5-1.6,1.8-4.4,2.2
		c-2.9,0.4-4.1,0.8-5.4,2.3c-1.2,1.4-2,3.9-2.1,8.2c-0.1,2.7,0,3.8,0.2,4c0.2,0.2,1.1,0.4,4.7,0.4c4.3,0,4.5,0,5.4,0.6
		c2.2,1.6,2.6,4.6,1.1,6.7c-0.3,0.4-0.6,0.7-1,1c-0.7,0.5-1.1,0.6-5.6,0.7c-3.4,0.1-4.7,0.2-4.7,0.4c0,0.2,0,7.4-0.1,16.2V171
		l-0.8,1c-0.5,0.6-1.1,1.1-1.8,1.4C54.4,174,52.9,174.1,51.6,173.7L51.6,173.7z"/>
	<path id="path5264" d="M142.1,173.5c-3.2-1.1-5-4.7-3.8-7.9c0.1-0.3,0.3-0.7,0.4-1c0.8-1.7,1.1-2.2,10.5-12.2
		c7.3-7.8,11-12,11.7-13.1c0.4-0.7,0.4-0.9,0.1-1.1c-0.3-0.2-3.3-0.2-9-0.1c-9.7,0.2-10,0.2-11.1-1.7c-0.5-0.8-0.7-1.8-0.5-2.7
		c0.1-2.1,0.6-3,2.1-3.7c0.7-0.4,2.3-0.4,13.8-0.3c7.4,0.1,13.4,0.2,13.9,0.3c1.4,0.5,2.6,1.5,3.2,2.9c0.5,0.9,0.7,2,0.5,3
		c-0.2,3.1-0.1,2.9-11.1,14.7c-10.5,11.1-12.5,13.3-12.5,13.7c-0.2,1.1-0.6,1.1,11.4,1c10.4-0.1,11.4,0,12.3,0.4
		c2.1,1.4,2.6,4.2,1.2,6.2c-0.2,0.3-0.4,0.5-0.6,0.7c-1.6,1.4-1.8,1.4-17.1,1.4C144.3,173.9,143.3,173.9,142.1,173.5L142.1,173.5z"
		/>
	<path id="path5242" d="M79.2,117.6c-3.3-1-5.3-4.4-4.4-7.7c1-3.5,4.6-5.6,8.2-4.6c1.8,0.6,3.3,1.9,4.1,3.6c1.4,3.4-0.3,7.3-3.7,8.6
		c-0.2,0.1-0.5,0.2-0.7,0.2C81.5,118.1,80.3,118.1,79.2,117.6L79.2,117.6z"/>
</g>
</svg>
