<svg id="svg8" xmlns="http://www.w3.org/2000/svg" viewBox="0 0 182.84 74.96"><defs><style>.cls-1{fill:#ffdd2b;}.cls-2{fill:none;stroke:#fff;stroke-miterlimit:10;stroke-width:20px;}</style></defs><title>fizzee</title><path class="cls-1" d="M88.76,25.93c-.22-.21-.87-1-1.53-1.8A16.45,16.45,0,0,0,86,22.62a5.89,5.89,0,0,1-.94-1.08,11.86,11.86,0,0,0-3-2.87,6.3,6.3,0,0,0-1.52-.36C77.89,18,75.58,21,76,24.13c.22,2.09.94,3.31,3.84,6.55.87.93,1.81,2.08,2.1,2.44l.58.72-.36.58a15,15,0,0,1-1,1.37,31.27,31.27,0,0,0-2.53,3.09c-.65.79-1.31,1.65-1.45,1.87-2.9,3.45-3.77,4.75-4.2,6.47A5.55,5.55,0,0,0,73.19,51c.5,1.44.94,2.09,2.82,4.25.8.86,2.1,2.37,2.9,3.3s1.45,1.73,1.52,1.8a5.87,5.87,0,0,1,.94,1.08c1.74,2.23,2.82,3.24,4,3.67.44.14,1.09.22,1.81.43a3.55,3.55,0,0,0,3.12-2.3,6.52,6.52,0,0,0-.15-6.11,15.34,15.34,0,0,0-2.89-3.82c-.87-.93-2.17-2.51-2.61-3-.22-.28-.51-.64-.72-.86s-.37-.5-.15-.86c.29-.58,2.61-3.6,5.5-7.12S92.81,37,93.1,35.93A9.26,9.26,0,0,0,93,31.69,23.69,23.69,0,0,0,88.76,25.93Z" transform="translate(-21.08 -0.68)"/><path class="cls-2" d="M88.76,25.93c-.22-.21-.87-1-1.53-1.8A16.45,16.45,0,0,0,86,22.62a5.89,5.89,0,0,1-.94-1.08,11.86,11.86,0,0,0-3-2.87,6.3,6.3,0,0,0-1.52-.36C77.89,18,75.58,21,76,24.13c.22,2.09.94,3.31,3.84,6.55.87.93,1.81,2.08,2.1,2.44l.58.72-.36.58a15,15,0,0,1-1,1.37,31.27,31.27,0,0,0-2.53,3.09c-.65.79-1.31,1.65-1.45,1.87-2.9,3.45-3.77,4.75-4.2,6.47A5.55,5.55,0,0,0,73.19,51c.5,1.44.94,2.09,2.82,4.25.8.86,2.1,2.37,2.9,3.3s1.45,1.73,1.52,1.8a5.87,5.87,0,0,1,.94,1.08c1.74,2.23,2.82,3.24,4,3.67.44.14,1.09.22,1.81.43a3.55,3.55,0,0,0,3.12-2.3,6.52,6.52,0,0,0-.15-6.11,15.34,15.34,0,0,0-2.89-3.82c-.87-.93-2.17-2.51-2.61-3-.22-.28-.51-.64-.72-.86s-.37-.5-.15-.86c.29-.58,2.61-3.6,5.5-7.12S92.81,37,93.1,35.93A9.26,9.26,0,0,0,93,31.69,23.69,23.69,0,0,0,88.76,25.93Z" transform="translate(-21.08 -0.68)"/><path class="cls-1" d="M157.11,48.59a7.92,7.92,0,0,0-.94-.14,4.38,4.38,0,0,1-.72.21,8.4,8.4,0,0,0-2,1.44C151,52.4,149,53.26,146,53.26a8.28,8.28,0,0,1-7.89-4.74c-.58-1.3-.94-3.38-.65-4.1l.22-.51,8.76-.07,8.76-.07,1.23-.65a5,5,0,0,0,3-5c-.07-4.89-4.42-9.42-10.21-10.79a25.92,25.92,0,0,0-3.55-.22,14.72,14.72,0,0,0-3.4.36,18.81,18.81,0,0,0-6,3,16.14,16.14,0,0,0-5.65,12.08c-.29,6.47,2.39,11.87,7.46,14.82A16.15,16.15,0,0,0,142.12,59a16.68,16.68,0,0,0,3.84.36,16.89,16.89,0,0,0,9.27-2.23,17.67,17.67,0,0,0,4.27-4A3.33,3.33,0,0,0,157.11,48.59ZM140.75,34.35a8,8,0,0,1,5.14-1.44,6.78,6.78,0,0,1,3,.43,6.12,6.12,0,0,1,3,2.3c.72,1.22.8,2,.29,2.52-.36.36-.51.36-7.1.36-3.69,0-6.8-.07-6.95-.14C137.42,38.09,139,35.57,140.75,34.35Z" transform="translate(-21.08 -0.68)"/><path class="cls-2" d="M157.11,48.59a7.92,7.92,0,0,0-.94-.14,4.38,4.38,0,0,1-.72.21,8.4,8.4,0,0,0-2,1.44C151,52.4,149,53.26,146,53.26a8.28,8.28,0,0,1-7.89-4.74c-.58-1.3-.94-3.38-.65-4.1l.22-.51,8.76-.07,8.76-.07,1.23-.65a5,5,0,0,0,3-5c-.07-4.89-4.42-9.42-10.21-10.79a25.92,25.92,0,0,0-3.55-.22,14.72,14.72,0,0,0-3.4.36,18.81,18.81,0,0,0-6,3,16.14,16.14,0,0,0-5.65,12.08c-.29,6.47,2.39,11.87,7.46,14.82A16.15,16.15,0,0,0,142.12,59a16.68,16.68,0,0,0,3.84.36,16.89,16.89,0,0,0,9.27-2.23,17.67,17.67,0,0,0,4.27-4A3.33,3.33,0,0,0,157.11,48.59ZM140.75,34.35a8,8,0,0,1,5.14-1.44,6.78,6.78,0,0,1,3,.43,6.12,6.12,0,0,1,3,2.3c.72,1.22.8,2,.29,2.52-.36.36-.51.36-7.1.36-3.69,0-6.8-.07-6.95-.14C137.42,38.09,139,35.57,140.75,34.35Z" transform="translate(-21.08 -0.68)"/><path class="cls-1" d="M190.56,48.52c-1.15,0-1.52.21-3,1.65a9.8,9.8,0,0,1-7.31,3,8.07,8.07,0,0,1-5-1.36,7.25,7.25,0,0,1-2.75-3.24,5.21,5.21,0,0,1-.58-2.88V44.06l8.76-.07,8.77-.08,1.15-.5c4.35-2,4.2-7.7-.21-12.08A12.56,12.56,0,0,0,185.13,28a13.28,13.28,0,0,0-5.21-.94,15.24,15.24,0,0,0-4,.58c-6.59,1.87-10.87,7.91-11,15.39-.15,6,2.46,11.08,6.88,14a14.61,14.61,0,0,0,4.56,2,24.15,24.15,0,0,0,7.89.07,19.06,19.06,0,0,0,5.22-1.94c1.52-.87,4.12-3.38,4.34-4.18A3.37,3.37,0,0,0,190.56,48.52ZM174.85,34.64a7.14,7.14,0,0,1,5.29-1.73A7.44,7.44,0,0,1,185,34.28c1.52,1.07,2.32,3.09,1.52,3.88-.36.36-.51.36-7.1.36-3.69,0-6.8-.07-6.95-.14C171.81,37.94,173.11,35.93,174.85,34.64Z" transform="translate(-21.08 -0.68)"/><path class="cls-2" d="M190.56,48.52c-1.15,0-1.52.21-3,1.65a9.8,9.8,0,0,1-7.31,3,8.07,8.07,0,0,1-5-1.36,7.25,7.25,0,0,1-2.75-3.24,5.21,5.21,0,0,1-.58-2.88V44.06l8.76-.07,8.77-.08,1.15-.5c4.35-2,4.2-7.7-.21-12.08A12.56,12.56,0,0,0,185.13,28a13.28,13.28,0,0,0-5.21-.94,15.24,15.24,0,0,0-4,.58c-6.59,1.87-10.87,7.91-11,15.39-.15,6,2.46,11.08,6.88,14a14.61,14.61,0,0,0,4.56,2,24.15,24.15,0,0,0,7.89.07,19.06,19.06,0,0,0,5.22-1.94c1.52-.87,4.12-3.38,4.34-4.18A3.37,3.37,0,0,0,190.56,48.52ZM174.85,34.64a7.14,7.14,0,0,1,5.29-1.73A7.44,7.44,0,0,1,185,34.28c1.52,1.07,2.32,3.09,1.52,3.88-.36.36-.51.36-7.1.36-3.69,0-6.8-.07-6.95-.14C171.81,37.94,173.11,35.93,174.85,34.64Z" transform="translate(-21.08 -0.68)"/><path class="cls-1" d="M63.19,29.6c0-.58-1.08-1.58-1.95-1.94a4,4,0,0,0-3.55.36c-1.37,1.08-1.3-.07-1.3,15.25V57l.43.72a3.6,3.6,0,0,0,1.23,1.08,4.22,4.22,0,0,0,3.84-.21c1.38-1.08,1.3-.15,1.3-15.18Z" transform="translate(-21.08 -0.68)"/><path class="cls-2" d="M63.19,29.6c0-.58-1.08-1.58-1.95-1.94a4,4,0,0,0-3.55.36c-1.37,1.08-1.3-.07-1.3,15.25V57l.43.72a3.6,3.6,0,0,0,1.23,1.08,4.22,4.22,0,0,0,3.84-.21c1.38-1.08,1.3-.15,1.3-15.18Z" transform="translate(-21.08 -0.68)"/><path class="cls-1" d="M45.24,19c.87-1,1.73-1.36,3.76-1.58s2.54-.43,3.19-1.51a3.64,3.64,0,0,0,.07-3.45c-.65-.94-1.81-1.37-3.55-1.37a10.58,10.58,0,0,0-8,3.38A12,12,0,0,0,37.42,21a24.33,24.33,0,0,0-.29,3.74L37,27.8l-2,.07c-1.59.08-2.17.15-2.6.44a3.44,3.44,0,0,0-.8,4.45c.58,1.08,1.45,1.37,3.69,1.37h1.67l.14.86c.08.51.15,5.54.15,11.23-.07,11.14-.07,10.86.94,11.79a3.43,3.43,0,0,0,.94.58,4.46,4.46,0,0,0,2.9-.15,3.93,3.93,0,0,0,1.23-1l.58-.72V45.64c.07-6.11.07-11.15.07-11.29s.94-.22,3.33-.29c3.12-.07,3.41-.14,3.91-.5a3.36,3.36,0,0,0-.07-5.4c-.58-.43-.8-.43-3.77-.43-2.53,0-3.11-.07-3.33-.29s-.21-.93-.14-2.8C43.86,21.69,44.3,20.11,45.24,19Z" transform="translate(-21.08 -0.68)"/><path class="cls-2" d="M45.24,19c.87-1,1.73-1.36,3.76-1.58s2.54-.43,3.19-1.51a3.64,3.64,0,0,0,.07-3.45c-.65-.94-1.81-1.37-3.55-1.37a10.58,10.58,0,0,0-8,3.38A12,12,0,0,0,37.42,21a24.33,24.33,0,0,0-.29,3.74L37,27.8l-2,.07c-1.59.08-2.17.15-2.6.44a3.44,3.44,0,0,0-.8,4.45c.58,1.08,1.45,1.37,3.69,1.37h1.67l.14.86c.08.51.15,5.54.15,11.23-.07,11.14-.07,10.86.94,11.79a3.43,3.43,0,0,0,.94.58,4.46,4.46,0,0,0,2.9-.15,3.93,3.93,0,0,0,1.23-1l.58-.72V45.64c.07-6.11.07-11.15.07-11.29s.94-.22,3.33-.29c3.12-.07,3.41-.14,3.91-.5a3.36,3.36,0,0,0-.07-5.4c-.58-.43-.8-.43-3.77-.43-2.53,0-3.11-.07-3.33-.29s-.21-.93-.14-2.8C43.86,21.69,44.3,20.11,45.24,19Z" transform="translate(-21.08 -0.68)"/><path class="cls-1" d="M124.89,53c-.58-.29-1.3-.36-8.62-.29-8.4.07-8.11.07-8-.72,0-.29,1.37-1.8,8.76-9.57,7.75-8.2,7.67-8,7.82-10.21a3.24,3.24,0,0,0-.36-2.09,3.78,3.78,0,0,0-2.25-1.94c-.36-.07-4.56-.14-9.77-.21-8.11-.08-9.2-.08-9.71.21-1,.51-1.37,1.15-1.45,2.59a2.4,2.4,0,0,0,.37,1.87c.87,1.3,1,1.3,7.82,1.15,4-.07,6.15-.07,6.3.07s.21.29-.08.8c-.43.79-3,3.66-8.18,9.13-6.59,7-6.8,7.34-7.38,8.49a4.32,4.32,0,0,0,2.39,6.18c.86.29,1.52.29,10.79.43,10.78,0,10.93,0,12-1A3.11,3.11,0,0,0,124.89,53Z" transform="translate(-21.08 -0.68)"/><path class="cls-2" d="M124.89,53c-.58-.29-1.3-.36-8.62-.29-8.4.07-8.11.07-8-.72,0-.29,1.37-1.8,8.76-9.57,7.75-8.2,7.67-8,7.82-10.21a3.24,3.24,0,0,0-.36-2.09,3.78,3.78,0,0,0-2.25-1.94c-.36-.07-4.56-.14-9.77-.21-8.11-.08-9.2-.08-9.71.21-1,.51-1.37,1.15-1.45,2.59a2.4,2.4,0,0,0,.37,1.87c.87,1.3,1,1.3,7.82,1.15,4-.07,6.15-.07,6.3.07s.21.29-.08.8c-.43.79-3,3.66-8.18,9.13-6.59,7-6.8,7.34-7.38,8.49a4.32,4.32,0,0,0,2.39,6.18c.86.29,1.52.29,10.79.43,10.78,0,10.93,0,12-1A3.11,3.11,0,0,0,124.89,53Z" transform="translate(-21.08 -0.68)"/><path class="cls-1" d="M61.09,10.83a4.68,4.68,0,0,0-5.72,3.23,4.5,4.5,0,0,0,3.12,5.4,3.06,3.06,0,0,0,2.39.07A4.64,4.64,0,0,0,64,13.34,5.21,5.21,0,0,0,61.09,10.83Z" transform="translate(-21.08 -0.68)"/><path class="cls-2" d="M61.09,10.83a4.68,4.68,0,0,0-5.72,3.23,4.5,4.5,0,0,0,3.12,5.4,3.06,3.06,0,0,0,2.39.07A4.64,4.64,0,0,0,64,13.34,5.21,5.21,0,0,0,61.09,10.83Z" transform="translate(-21.08 -0.68)"/><path id="path5278" class="cls-1" d="M85.42,65.27c-1.23-.44-2.31-1.45-4-3.7a5.5,5.5,0,0,0-.94-1.08c-.07-.07-.73-.87-1.52-1.81s-2.1-2.46-2.9-3.33c-1.88-2.18-2.32-2.83-2.82-4.28A5.61,5.61,0,0,1,73,47.31c.43-1.74,1.3-3,4.2-6.52.14-.22.8-1.08,1.45-1.88a32.14,32.14,0,0,1,2.53-3.11,15,15,0,0,0,1-1.38l.36-.58L82,33.12c-.29-.37-1.23-1.52-2.1-2.47C77,27.4,76.23,26.16,76,24.07c-.43-3.19,1.88-6.16,4.49-5.87a6.81,6.81,0,0,1,1.52.36,11.73,11.73,0,0,1,3,2.9A5.89,5.89,0,0,0,86,22.54a16.53,16.53,0,0,1,1.23,1.53c.66.79,1.31,1.59,1.53,1.81A23.55,23.55,0,0,1,93,31.67a9.39,9.39,0,0,1,.07,4.27c-.29,1.09-.94,2-3.77,5.5s-5.21,6.59-5.5,7.17c-.22.36-.14.51.15.87s.5.58.72.87c.44.51,1.74,2.1,2.61,3a15.49,15.49,0,0,1,2.89,3.84,6.6,6.6,0,0,1,.15,6.15,3.56,3.56,0,0,1-3.12,2.32c-.72-.22-1.37-.29-1.81-.43Z" transform="translate(-21.08 -0.68)"/><path id="path5276" d="M145.67,27.11a14.19,14.19,0,0,0-3.4.36,18.83,18.83,0,0,0-6,3,16.33,16.33,0,0,0-5.65,12.16c-.29,6.52,2.39,11.95,7.46,14.92a15.75,15.75,0,0,0,4.05,1.52,16.13,16.13,0,0,0,3.84.36,16.8,16.8,0,0,0,9.27-2.24,17.9,17.9,0,0,0,4.27-4,3.37,3.37,0,0,0-2.39-4.57,7.92,7.92,0,0,0-.94-.14,5.4,5.4,0,0,1-.72.22,8.23,8.23,0,0,0-2,1.45C151,52.52,149,53.39,146,53.39a8.26,8.26,0,0,1-7.89-4.78,7.59,7.59,0,0,1-.65-4.13l.22-.5,8.76-.07,8.76-.08,1.23-.65a5,5,0,0,0,3-5c-.07-4.93-4.42-9.49-10.21-10.87A26.07,26.07,0,0,0,145.67,27.11Zm.22,5.79a6.78,6.78,0,0,1,3,.43,6.09,6.09,0,0,1,3,2.32c.72,1.23.8,2,.29,2.54-.36.36-.51.36-7.1.36-3.69,0-6.8-.08-6.95-.15-.79-.29.8-2.82,2.54-4A7.92,7.92,0,0,1,145.89,32.9Z" transform="translate(-21.08 -0.68)"/><path id="path5272" d="M179.92,27a15.24,15.24,0,0,0-4,.58c-6.59,1.89-10.87,8-11,15.5-.15,6,2.46,11.15,6.88,14a14.61,14.61,0,0,0,4.56,2,23.61,23.61,0,0,0,7.89.07,18.76,18.76,0,0,0,5.22-2c1.52-.87,4.12-3.4,4.34-4.2a3.4,3.4,0,0,0-3.19-4.42c-1.15,0-1.52.22-3,1.67a9.78,9.78,0,0,1-7.31,3,8,8,0,0,1-5-1.38,7.2,7.2,0,0,1-2.75-3.26,5.23,5.23,0,0,1-.58-2.89V44.12l8.76-.07,8.77-.07,1.15-.51c4.35-2,4.2-7.75-.21-12.16A12.51,12.51,0,0,0,185.13,28,13.12,13.12,0,0,0,179.92,27Zm.22,5.87A7.44,7.44,0,0,1,185,34.27c1.52,1.09,2.32,3.12,1.52,3.92-.36.36-.51.36-7.1.36-3.69,0-6.8-.08-6.95-.15-.65-.43.65-2.46,2.39-3.76A7.11,7.11,0,0,1,180.14,32.9Z" transform="translate(-21.08 -0.68)"/><path id="path5268" d="M58.05,59a3.73,3.73,0,0,1-1.23-1.09l-.43-.72V43.33c0-15.43-.07-14.27,1.3-15.35a4,4,0,0,1,3.55-.37c.87.37,1.95,1.38,1.95,2v13.9c0,15.13.08,14.19-1.3,15.28A4.19,4.19,0,0,1,58.05,59Z" transform="translate(-21.08 -0.68)"/><path id="path5266" d="M39.08,58.75a3.2,3.2,0,0,1-.94-.58c-1-.94-1-.65-.94-11.87,0-5.73-.07-10.79-.15-11.3l-.14-.87H35.24c-2.24,0-3.11-.29-3.69-1.38-.87-1.44-.51-3.69.8-4.49.43-.28,1-.36,2.6-.43l2-.07.15-3.12a24.68,24.68,0,0,1,.29-3.76,12.13,12.13,0,0,1,3.25-6.59,10.53,10.53,0,0,1,8-3.4c1.74,0,2.9.43,3.55,1.37a3.7,3.7,0,0,1-.07,3.48C51.54,16.82,51,17,49,17.26s-2.89.58-3.76,1.59-1.38,2.75-1.45,5.72c-.07,1.88,0,2.68.14,2.83s.8.29,3.33.29c3,0,3.19,0,3.77.43a3.39,3.39,0,0,1,.07,5.43c-.5.36-.79.44-3.91.51-2.39.07-3.33.14-3.33.29s0,5.21-.07,11.37V56.87l-.58.72a4,4,0,0,1-1.23,1,4.34,4.34,0,0,1-2.9.15Z" transform="translate(-21.08 -0.68)"/><path id="path5264" d="M102.59,58.6a4.36,4.36,0,0,1-2.39-6.22c.58-1.16.79-1.52,7.38-8.55,5.14-5.5,7.75-8.4,8.18-9.19.29-.51.29-.65.08-.8s-2.32-.14-6.3-.07c-6.81.14-7,.14-7.82-1.16a2.44,2.44,0,0,1-.36-1.88c.07-1.45.43-2.1,1.44-2.61.51-.29,1.6-.29,9.71-.22,5.21.08,9.41.15,9.77.22a3.75,3.75,0,0,1,2.25,2,3.26,3.26,0,0,1,.36,2.1c-.15,2.17-.07,2-7.82,10.28-7.39,7.82-8.76,9.34-8.76,9.63-.15.79-.44.79,8,.72,7.32-.07,8,0,8.62.29A3.15,3.15,0,0,1,125.4,58c-1.09,1-1.24,1-12,1-9.27-.15-9.93-.15-10.79-.44Z" transform="translate(-21.08 -0.68)"/><path id="path5242" d="M58.49,19.36a4.53,4.53,0,0,1-3.12-5.43,4.68,4.68,0,0,1,5.72-3.26A5.24,5.24,0,0,1,64,13.2a4.67,4.67,0,0,1-3.11,6.23,3.06,3.06,0,0,1-2.39-.07Z" transform="translate(-21.08 -0.68)"/></svg>